<svg width="20" height="69" viewBox="0 0 20 69" fill="none" xmlns="http://www.w3.org/2000/svg">
<path d="M19.8372 43.8912C19.0787 29.8263 16.111 13.8566 11.4111 1.7762C11.7245 1.04764 11.245 -0.219696 10.6159 0.0327388C3.22778 2.99636 1.14916 23.6356 0.389332 33.4875C-0.448886 44.3544 -0.682241 64.9203 7.76561 68.5078C11.2466 69.9866 15.3789 68.0829 17.6002 63.4724C20.1916 58.0938 20.1853 50.3439 19.8372 43.8912ZM16.8406 34.1251C14.5593 33.5605 11.3791 34.6414 10.0267 34.9421C9.47931 35.0637 8.94625 35.2115 8.41274 35.3592C8.47568 25.1284 9.31389 14.8236 10.1589 4.69412C12.1544 10.9014 15.1717 22.621 16.8406 34.1251ZM15.6045 37.8305C15.5332 38.0354 15.4698 38.2219 15.4184 38.3862C15.2539 38.1828 15.0928 37.9672 14.9272 37.7612C15.1521 37.7826 15.3782 37.8058 15.6045 37.8305ZM2.38206 34.543C2.90126 25.9731 4.33662 11.0886 8.9826 4.43948C7.02032 14.1385 6.06077 25.1487 6.15325 36.0753C6.02691 36.121 5.90353 36.1799 5.77765 36.2275C5.55316 36.1125 5.30231 36.1195 5.061 36.3214C4.9458 36.4184 4.84173 36.5448 4.73016 36.6516C3.88672 37.0095 3.0485 37.3946 2.21778 37.8401C2.26663 36.5982 2.32548 35.4775 2.38206 34.543ZM8.91058 65.4148C4.22505 64.9254 2.642 56.6658 2.23096 48.4232C2.3423 48.5216 2.4625 48.5861 2.58747 48.6122C2.61314 48.6734 2.66041 48.7051 2.71199 48.6513C2.72312 48.6399 2.73516 48.631 2.74652 48.6192C2.96488 48.6016 3.18779 48.4611 3.38751 48.1357C3.43841 48.0525 3.48976 47.9673 3.54089 47.8829C4.48681 47.0862 5.49567 46.5076 6.53225 46.0706C7.00306 52.8458 7.89581 59.4205 9.24323 65.4347C9.13189 65.427 9.02441 65.4266 8.91058 65.4148ZM11.3019 65.3039C11.2939 65.2593 11.2905 65.2173 11.28 65.1712C9.78061 58.6853 8.97851 52.0568 8.6236 45.3608C9.19687 45.2049 9.77061 45.0697 10.3389 44.951C12.9726 44.4008 15.417 45.4345 17.9633 45.2691C18.4616 55.6609 16.9651 64.0782 11.3019 65.3039Z" fill="white"/>
</svg>
